<svg width="19px" height="19px" viewBox="0 0 19 19" version="1.1" xmlns="http://www.w3.org/2000/svg" xmlns:xlink="http://www.w3.org/1999/xlink">
    <!-- Generator: Sketch 48.2 (47327) - http://www.bohemiancoding.com/sketch -->
    <desc>Created with Sketch.</desc>
    <defs></defs>
    <g id="Pages" stroke="none" stroke-width="1" fill="none" fill-rule="evenodd">
        <g id="Desktop---Search-Booking" transform="translate(-1359.000000, -325.000000)" fill="#F37073">
            <g id="Group" transform="translate(1230.000000, 70.000000)">
                <g id="Buttons" transform="translate(23.000000, 255.000000)">
                    <g id="Afternoon" transform="translate(76.000000, 0.000000)">
                        <path d="M34.0449219,4.879884 C34.15625,4.99121212 34.2954084,5.046875 34.4624017,5.046875 C34.6293951,5.046875 34.7685535,4.99121212 34.879884,4.879884 C34.9912121,4.7685535 35.046875,4.62939512 35.046875,4.46240175 C35.046875,4.29540837 34.9912121,4.15625 34.879884,4.04492187 L33.6181652,2.78320312 C33.5068347,2.671875 33.3676764,2.61620975 33.200683,2.61620975 C33.0336896,2.61620975 32.8945312,2.671875 32.7832031,2.78320312 C32.671875,2.89453125 32.6162097,3.03368962 32.6162097,3.200683 C32.6162097,3.36767637 32.671875,3.50683475 32.7832031,3.61816525 L34.0449219,4.879884 Z M32.375,8.90625 L30.59375,8.90625 C30.4329418,8.90625 30.2937832,8.96500512 30.1762695,9.08252012 C30.0587559,9.20003275 30,9.33919112 30,9.5 C30,9.66080888 30.0587559,9.79996725 30.1762695,9.91747987 C30.2937832,10.0349949 30.4329418,10.09375 30.59375,10.09375 L32.375,10.09375 C32.5358089,10.09375 32.6749673,10.0349949 32.7924799,9.91747987 C32.9099949,9.79996725 32.96875,9.66080888 32.96875,9.5 C32.96875,9.33919112 32.9099949,9.20003275 32.7924799,9.08252012 C32.6749673,8.96500512 32.5358089,8.90625 32.375,8.90625 Z M45.2148438,4.620116 L46.458009,3.37695312 C46.5693371,3.25325362 46.625,3.111003 46.625,2.9501965 C46.625,2.78938762 46.5693371,2.6533215 46.458009,2.541991 C46.3466785,2.43066287 46.2106124,2.375 46.0498035,2.375 C45.888997,2.375 45.7467464,2.43066287 45.6230469,2.541991 L44.379884,3.78515625 C44.2685535,3.89648437 44.2128906,4.03564275 44.2128906,4.20263612 C44.2128906,4.3696295 44.2685535,4.50878787 44.379884,4.620116 C44.4912121,4.7314465 44.6303705,4.78710937 44.7973639,4.78710937 C44.9643572,4.78710937 45.1035156,4.7314465 45.2148438,4.620116 Z M39.5,2.96875 C39.6608089,2.96875 39.7999673,2.90999487 39.9174799,2.79247987 C40.0349949,2.67496725 40.09375,2.53580887 40.09375,2.375 L40.09375,0.59375 C40.09375,0.432941125 40.0349949,0.29378275 39.9174799,0.176270125 C39.7999673,0.058755125 39.6608089,0 39.5,0 C39.3391911,0 39.2000327,0.058755125 39.0825201,0.176270125 C38.9650051,0.29378275 38.90625,0.432941125 38.90625,0.59375 L38.90625,2.375 C38.90625,2.53580887 38.9650051,2.67496725 39.0825201,2.79247987 C39.2000327,2.90999487 39.3391911,2.96875 39.5,2.96875 Z M34.3974597,13.7675781 L33.1542969,15.010741 C33.0429687,15.1344405 32.9873035,15.2766911 32.9873035,15.4375 C32.9873035,15.5983089 33.0429687,15.734375 33.1542969,15.8457031 C33.265625,15.9570312 33.4016911,16.0126965 33.5625,16.0126965 C33.7233089,16.0126965 33.8655595,15.9570312 33.989259,15.8457031 L35.2324219,14.6025402 C35.34375,14.4912097 35.3994152,14.3520514 35.3994152,14.185058 C35.3994152,14.0180646 35.34375,13.8789062 35.2324219,13.7675781 C35.1210937,13.65625 34.9819354,13.6005847 34.814942,13.6005847 C34.6479486,13.6005847 34.5087902,13.65625 34.3974597,13.7675781 Z M44.9550781,14.120116 C44.84375,14.0087879 44.7045916,13.953125 44.5375983,13.953125 C44.3706049,13.953125 44.2314465,14.0087879 44.120116,14.120116 C44.0087879,14.2314465 43.953125,14.3706049 43.953125,14.5375982 C43.953125,14.7045916 44.0087879,14.84375 44.120116,14.9550781 L45.3818347,16.2167969 C45.4931653,16.328125 45.6323236,16.3837903 45.799317,16.3837903 C45.9663104,16.3837903 46.1054688,16.328125 46.2167969,16.2167969 C46.328125,16.1054688 46.3837903,15.9663104 46.3837903,15.799317 C46.3837903,15.6323236 46.328125,15.4931653 46.2167969,15.3818347 L44.9550781,14.120116 Z M48.40625,8.90625 L46.625,8.90625 C46.4641911,8.90625 46.3250328,8.96500512 46.2075201,9.08252012 C46.0900051,9.20003275 46.03125,9.33919112 46.03125,9.5 C46.03125,9.66080888 46.0900051,9.79996725 46.2075201,9.91747987 C46.3250328,10.0349949 46.4641911,10.09375 46.625,10.09375 L48.40625,10.09375 C48.5670589,10.09375 48.7062173,10.0349949 48.8237299,9.91747987 C48.9412449,9.79996725 49,9.66080888 49,9.5 C49,9.33919112 48.9412449,9.20003275 48.8237299,9.08252012 C48.7062173,8.96500512 48.5670589,8.90625 48.40625,8.90625 Z M39.5,16.03125 C39.3391911,16.03125 39.2000327,16.0900051 39.0825201,16.2075201 C38.9650051,16.3250328 38.90625,16.4641911 38.90625,16.625 L38.90625,18.40625 C38.90625,18.5670582 38.9650051,18.7062168 39.0825201,18.8237305 C39.2000327,18.9412441 39.3391911,19 39.5,19 C39.6608089,19 39.7999673,18.9412441 39.9174799,18.8237305 C40.0349949,18.7062168 40.09375,18.5670582 40.09375,18.40625 L40.09375,16.625 C40.09375,16.4641911 40.0349949,16.3250328 39.9174799,16.2075201 C39.7999673,16.0900051 39.6608089,16.03125 39.5,16.03125 Z M39.5,4.15625 C38.7578077,4.15625 38.0620159,4.29540837 37.4125983,4.57372987 C36.7631806,4.85205137 36.197268,5.2324195 35.7148438,5.71484375 C35.2324195,6.197268 34.8520514,6.76318062 34.5737299,7.41259825 C34.2954084,8.06201588 34.15625,8.75780775 34.15625,9.5 C34.15625,10.2421923 34.2954084,10.9379841 34.5737299,11.5874017 C34.8520514,12.2368194 35.2324195,12.802732 35.7148438,13.2851562 C36.197268,13.7675805 36.7631806,14.1479486 37.4125983,14.4262701 C38.0620159,14.7045916 38.7578077,14.84375 39.5,14.84375 C40.2421923,14.84375 40.9379841,14.7045916 41.5874017,14.4262701 C42.2368194,14.1479486 42.802732,13.7675805 43.2851562,13.2851562 C43.7675805,12.802732 44.1479486,12.2368194 44.4262701,11.5874017 C44.7045916,10.9379841 44.84375,10.2421923 44.84375,9.5 C44.84375,8.75780775 44.7045916,8.06201588 44.4262701,7.41259825 C44.1479486,6.76318062 43.7675805,6.197268 43.2851562,5.71484375 C42.802732,5.2324195 42.2368194,4.85205137 41.5874017,4.57372987 C40.9379841,4.29540837 40.2421923,4.15625 39.5,4.15625 Z" id="Page-1"></path>
                    </g>
                </g>
            </g>
        </g>
    </g>
</svg>
