<svg width="13px" height="14px" viewBox="0 0 13 14" version="1.1" xmlns="http://www.w3.org/2000/svg" xmlns:xlink="http://www.w3.org/1999/xlink">
    <!-- Generator: Sketch 48.2 (47327) - http://www.bohemiancoding.com/sketch -->
    <desc>Created with Sketch.</desc>
    <defs></defs>
    <g id="Pages" stroke="none" stroke-width="1" fill="none" fill-rule="evenodd">
        <g id="Desktop---Search-Booking" transform="translate(-1442.000000, -329.000000)" fill="#F37073">
            <g id="Group" transform="translate(1230.000000, 70.000000)">
                <g id="Buttons" transform="translate(23.000000, 255.000000)">
                    <g id="Evening" transform="translate(155.000000, 4.000000)">
                        <path d="M45.7900815,10.5203804 C46.2334718,10.5203804 46.6567016,10.4599193 47.0597826,10.3389946 C46.7776255,10.7823844 46.5357816,11.1451527 46.3342391,11.4273098 C44.963763,13.079945 43.190229,13.90625 41.013587,13.90625 C39.0787927,13.90625 37.4261842,13.2310983 36.0557065,11.8807745 C34.6852288,10.5304506 34,8.88791922 34,6.953125 C34,5.38110639 34.45346,3.98041665 35.360394,2.75102096 C36.267328,1.52162139 37.4463242,0.685238087 38.8974185,0.241847826 C39.2198848,0.161233174 39.6632673,0.0806146522 40.2275815,0 C39.9051152,0.483699522 39.6834239,0.846467391 39.5625,1.08831522 C39.1191097,1.97509574 38.8974185,2.92232274 38.8974185,3.93002717 C38.8974185,5.74389361 39.5423396,7.2957363 40.8322011,8.58559783 C42.1220626,9.87545935 43.6739053,10.5203804 45.4877717,10.5203804 L45.7900815,10.5203804 Z" id="Page-1"></path>
                    </g>
                </g>
            </g>
        </g>
    </g>
</svg>
