<svg width="15px" height="15px" viewBox="0 0 15 15" version="1.1" xmlns="http://www.w3.org/2000/svg"
     xmlns:xlink="http://www.w3.org/1999/xlink">
    <!-- Generator: Sketch 48.2 (47327) - http://www.bohemiancoding.com/sketch -->
    <desc>Created with Sketch.</desc>
    <defs></defs>
    <g id="Pages" stroke="none" stroke-width="1" fill="none" fill-rule="evenodd">
        <g id="Desktop---Search-Booking" transform="translate(-1279.000000, -326.000000)" fill="#F37073">
            <g id="Group" transform="translate(1230.000000, 70.000000)">
                <g id="Buttons" transform="translate(23.000000, 255.000000)">
                    <g id="Morning" transform="translate(0.000000, 1.000000)">
                        <path
                            d="M35.84375,14.0625 L31.15625,14.0625 C31.0292956,14.0625 30.9194337,14.1088862 30.8266606,14.2016602 C30.7338856,14.2944341 30.6875,14.4042962 30.6875,14.53125 C30.6875,14.6582038 30.7338856,14.7680659 30.8266606,14.8608398 C30.9194337,14.9536137 31.0292956,15 31.15625,15 L35.84375,15 C35.9707044,15 36.0805663,14.9536137 36.1733394,14.8608398 C36.2661144,14.7680659 36.3125,14.6582038 36.3125,14.53125 C36.3125,14.4042962 36.2661144,14.2944341 36.1733394,14.2016602 C36.0805663,14.1088862 35.9707044,14.0625 35.84375,14.0625 Z M40.7509775,9.375 C40.8291013,9.07226437 40.8901362,8.76465 40.9340825,8.4521475 C40.9780269,8.13964687 41,7.8222675 41,7.5 C41,6.46483875 40.8046887,5.4907275 40.4140625,4.57763625 C40.0234363,3.66454687 39.4887725,2.86865625 38.8100581,2.18994187 C38.1313437,1.5112275 37.3354531,0.97656375 36.4223638,0.5859375 C35.5092725,0.19531125 34.5351613,0 33.5,0 C32.4648387,0 31.4907275,0.19531125 30.5776363,0.5859375 C29.6645469,0.97656375 28.8686563,1.5112275 28.1899419,2.18994187 C27.5112271,2.86865625 26.9765645,3.66454687 26.5859375,4.57763625 C26.1953105,5.4907275 26,6.46483875 26,7.5 C26,7.8222675 26.0219724,8.13964687 26.065918,8.4521475 C26.1098635,8.76465 26.170898,9.07226437 26.2490234,9.375 L40.7509775,9.375 Z M39.125,12.1875 L27.875,12.1875 C27.7480462,12.1875 27.6381841,12.2338856 27.5454102,12.3266606 C27.4526362,12.4194337 27.40625,12.5292956 27.40625,12.65625 C27.40625,12.7832044 27.4526362,12.8930663 27.5454102,12.9858394 C27.6381841,13.0786144 27.7480462,13.125 27.875,13.125 L39.125,13.125 C39.2519544,13.125 39.3618163,13.0786144 39.4545894,12.9858394 C39.5473644,12.8930663 39.59375,12.7832044 39.59375,12.65625 C39.59375,12.5292956 39.5473644,12.4194337 39.4545894,12.3266606 C39.3618163,12.2338856 39.2519544,12.1875 39.125,12.1875 Z M40.53125,10.3125 L26.46875,10.3125 C26.3417962,10.3125 26.2319341,10.3588856 26.1391602,10.4516606 C26.0463863,10.5444337 26,10.6542956 26,10.78125 C26,10.9082044 26.0463863,11.0180663 26.1391602,11.1108394 C26.2319341,11.2036144 26.3417962,11.25 26.46875,11.25 L40.53125,11.25 C40.6582044,11.25 40.7680663,11.2036144 40.8608394,11.1108394 C40.9536144,11.0180663 41,10.9082044 41,10.78125 C41,10.6542956 40.9536144,10.5444337 40.8608394,10.4516606 C40.7680663,10.3588856 40.6582044,10.3125 40.53125,10.3125 Z"
                            id="Page-1"></path>
                    </g>
                </g>
            </g>
        </g>
    </g>
</svg>
