<svg width="15px" height="13px" viewBox="0 0 15 13" version="1.1" xmlns="http://www.w3.org/2000/svg" xmlns:xlink="http://www.w3.org/1999/xlink">
    <!-- Generator: Sketch 43.2 (39069) - http://www.bohemiancoding.com/sketch -->
    <desc>Created with Sketch.</desc>
    <defs></defs>
    <g id="Symbols" stroke="none" stroke-width="1" fill="none" fill-rule="evenodd">
        <g id="Buttons-/-Google" transform="translate(-13.000000, -14.000000)" fill="#F37073">
            <path d="M17.0136719,26.6855469 C18.2050844,26.6855469 19.1474575,26.4023465 19.8408213,25.8359375 C20.5341831,25.2695285 20.8808594,24.6054725 20.8808594,23.84375 C20.8808594,23.2773406 20.7783213,22.8037137 20.5732413,22.4228506 C20.3681631,22.0419894 20.0117219,21.6660181 19.5039062,21.2949219 C19.2695294,21.1386706 19.0400406,20.9384769 18.8154288,20.6943369 C18.5908188,20.450195 18.4785156,20.2402344 18.4785156,20.0644531 C18.4785156,19.8496081 18.52246,19.6689462 18.6103525,19.5224619 C18.6982431,19.3759756 18.8984369,19.1855487 19.2109375,18.9511719 C19.9531281,18.3652306 20.3242188,17.681645 20.3242188,16.9003906 C20.3242188,16.392575 20.2119156,15.9287131 19.9873038,15.5087881 C19.7626938,15.088865 19.4550794,14.8007825 19.0644531,14.6445312 L20.3242188,14.6445312 L21.203125,14 L17.2773438,14 C16.3789019,14 15.5830113,14.2880825 14.8896475,14.8642569 C14.1962856,15.4404331 13.8496094,16.1093712 13.8496094,16.8710937 C13.8496094,17.6718781 14.1279269,18.3505831 14.6845703,18.9072256 C15.2412138,19.46387 15.9589806,19.7421875 16.8378906,19.7421875 C16.97461,19.7421875 17.0917956,19.7324225 17.1894531,19.7128906 C17.0722656,19.9667975 17.0136719,20.2109356 17.0136719,20.4453125 C17.0136719,20.8164087 17.1894512,21.1777325 17.5410156,21.5292969 L17.2041025,21.5292969 L16.8671875,21.5292969 C15.7929625,21.5292969 14.8798863,21.8173794 14.1279297,22.3935556 C13.3759728,22.96973 13,23.6289031 13,24.3710937 C13,25.054691 13.390621,25.611326 14.171875,26.0410156 C14.9531294,26.4707052 15.900385,26.6855469 17.0136719,26.6855469 Z M17.4091787,19.3320313 C16.91113,19.3124994 16.4521506,19.0634788 16.0322275,18.5849619 C15.6123025,18.1064431 15.3583994,17.5351588 15.2705087,16.8710938 C15.1826162,16.2070288 15.2851544,15.6503938 15.578125,15.2011719 C15.8710956,14.75195 16.2714812,14.5371088 16.7792969,14.5566406 C17.2871125,14.5761725 17.7509744,14.8203106 18.1708975,15.2890625 C18.5908225,15.7578144 18.8447256,16.3242163 18.9326162,16.9882813 C19.0205087,17.6523463 18.9130881,18.2138656 18.6103525,18.6728506 C18.307615,19.1318375 17.9072294,19.3515631 17.4091787,19.3320313 Z M17.2773438,21.9101562 C17.6093763,21.9101562 17.93164,21.9589831 18.2441406,22.0566406 C18.3222663,22.1152344 18.4345694,22.1933581 18.5810538,22.2910156 C18.72754,22.3886731 18.8300781,22.4619144 18.8886719,22.5107431 C18.9472656,22.55957 19.0351563,22.6230462 19.1523438,22.7011719 C19.2695313,22.7792975 19.3525394,22.8476562 19.4013663,22.90625 C19.450195,22.9648437 19.5087888,23.0332025 19.5771475,23.1113281 C19.6455081,23.1894537 19.6992194,23.2675775 19.7382813,23.3457031 C19.7773431,23.4238287 19.80664,23.5117175 19.8261719,23.609375 C19.8457038,23.7460944 19.8554688,23.8828119 19.8554688,24.0195312 C19.8554688,25.3671942 18.9082131,26.0410156 17.0136719,26.0410156 C16.2714813,26.0410156 15.65137,25.8359396 15.1533213,25.4257812 C14.655271,25.0156229 14.40625,24.5273469 14.40625,23.9609375 C14.40625,23.3945281 14.6943331,22.9111344 15.2705088,22.5107431 C15.8466831,22.11035 16.5156213,21.9101562 17.2773438,21.9101562 Z M25.1875,16.7832031 L25.1875,14 L24.25,14 L24.25,16.7832031 L21.4375,16.7832031 L21.4375,17.7207031 L24.25,17.7207031 L24.25,20.5625 L25.1875,20.5625 L25.1875,17.7207031 L28,17.7207031 L28,16.7832031 L25.1875,16.7832031 Z" id="Page-1"></path>
        </g>
    </g>
</svg>