<svg width="19px" height="21px" viewBox="0 0 19 21" version="1.1" xmlns="http://www.w3.org/2000/svg" xmlns:xlink="http://www.w3.org/1999/xlink">
    <!-- Generator: Sketch 43.2 (39069) - http://www.bohemiancoding.com/sketch -->
    <desc>Created with Sketch.</desc>
    <defs></defs>
    <g id="Symbols" stroke="none" stroke-width="1" fill="none" fill-rule="evenodd">
        <g id="Buttons-/-Alerts" transform="translate(0.000000, -8.000000)" fill="#444444">
            <path d="M16.7868852,23.5409836 L19,25.7540984 L19,26.8852459 L0.114754098,26.8852459 L0.114754098,25.7540984 L2.32786885,23.5409836 L2.32786885,17.442623 C2.32786885,15.7704824 2.85245377,14.2704997 3.90163934,12.9426214 C4.95082492,11.6147462 6.27868118,10.7704939 7.8852459,10.4098361 L7.8852459,9.67213115 C7.8852459,9.21311266 8.04917928,8.81967318 8.37704918,8.49180328 C8.70491908,8.16393338 9.09835856,8 9.55737705,8 C10.0163955,8 10.409835,8.16393338 10.7377049,8.49180328 C11.0655748,8.81967318 11.2295082,9.21311266 11.2295082,9.67213115 L11.2295082,10.4098361 C12.8360729,10.7704939 14.1639292,11.6147462 15.2131148,12.9426214 C16.2623003,14.2704997 16.7868852,15.7704824 16.7868852,17.442623 L16.7868852,23.5409836 Z M7.35409836,26.8852459 L11.4852459,26.8852459 C11.4852459,27.4426257 11.2803284,27.9344242 10.8704934,28.3606557 C10.4606552,28.7868874 9.97705128,29 9.41967213,29 C8.86229298,29 8.37868905,28.7868874 7.96885089,28.3606557 C7.55901587,27.9344242 7.35409836,27.4426257 7.35409836,26.8852459 Z" id="Page-1"></path>
        </g>
    </g>
</svg>