<svg width="17px" height="17px" viewBox="0 0 17 17" version="1.1" xmlns="http://www.w3.org/2000/svg">
    <g id="z" stroke="none" stroke-width="1" fill="none" fill-rule="evenodd">
        <g id="Desktop---01-Account-Profile" transform="translate(-1441.000000, -185.000000)" fill-rule="nonzero"
           fill="#F37073">
            <g id="gps" transform="translate(1441.000000, 185.000000)">
                <circle id="Oval" cx="8.5" cy="8.5" r="2.5"/>
                <path
                    d="M16.6457898,7.79167773 L14.8331683,7.79167773 C14.5052881,4.84201172 12.1582966,2.49468359 9.20830428,2.16676953 L9.20830428,0.354177734 C9.20830428,0.158412109 9.04992568,0 8.85416044,0 L8.14583956,0 C7.95007432,0 7.79166252,0.158412109 7.79166252,0.354177734 L7.79166252,2.16676953 C4.84167023,2.49468359 2.49467872,4.84197852 2.1667985,7.79167773 L0.354177043,7.79167773 C0.1584118,7.79167773 0,7.95008984 0,8.14582227 L0,8.85414453 C0,9.04991016 0.1584118,9.20832227 0.354177043,9.20832227 L2.1667985,9.20832227 C2.49467872,12.1579883 4.84167023,14.5053164 7.79166252,14.8332305 L7.79166252,16.6458223 C7.79166252,16.8415879 7.95007432,17 8.14583956,17 L8.85416044,17 C9.04992568,17 9.20833748,16.8415879 9.20833748,16.6458223 L9.20833748,14.8332305 C12.1582966,14.5053164 14.5053213,12.1579883 14.8332015,9.20832227 L16.645823,9.20832227 C16.8415882,9.20832227 17,9.04991016 17,8.85414453 L17,8.14582227 C16.9999668,7.95008984 16.841555,7.79167773 16.6457898,7.79167773 Z M8.4999834,13.4583223 C5.76627585,13.4583223 3.54167082,11.2340449 3.54167082,8.5 C3.54167082,5.76595508 5.76627585,3.54167773 8.4999834,3.54167773 C11.2336909,3.54167773 13.458296,5.76592187 13.458296,8.5 C13.458296,11.2340781 11.2336909,13.4583223 8.4999834,13.4583223 Z"
                    id="Shape"/>
            </g>
        </g>
    </g>
</svg>
