<svg width="19px" height="14px" viewBox="0 0 19 14" version="1.1" xmlns="http://www.w3.org/2000/svg" xmlns:xlink="http://www.w3.org/1999/xlink">
    <!-- Generator: Sketch 43.2 (39069) - http://www.bohemiancoding.com/sketch -->
    <desc>Created with Sketch.</desc>
    <defs></defs>
    <g id="Symbols" stroke="none" stroke-width="1" fill="none" fill-rule="evenodd">
        <g id="Buttons-/-Messages" transform="translate(0.000000, -12.000000)" fill="#444444">
            <path d="M0,24.5 L0,13.5 C0,13.4111104 0.0138887509,13.3055552 0.0416666667,13.1833344 L7.8916672,21.0500011 C8.33055787,21.4888917 8.86944213,21.7083328 9.5083328,21.7083328 C10.1361152,21.7083328 10.6694421,21.4888917 11.1083328,21.0500011 L18.9749995,13.1833344 C18.9916672,13.2944448 19,13.4 19,13.5 L19,24.5 C19,24.9111132 18.8541675,25.2638874 18.5625003,25.5583334 C18.2708309,25.8527792 17.9194475,26 17.5083328,26 L1.50833323,26 C1.09722027,26 0.743057067,25.8527792 0.445833387,25.5583334 C0.148609621,25.2638874 0,24.9111132 0,24.5 Z M1.07499989,12.0666667 C1.21944512,12.0222229 1.36388821,12 1.50833323,12 L17.5083328,12 C17.6416683,12 17.7805547,12.0222229 17.9250005,12.0666667 L10.0166656,19.9666667 C9.87777707,20.1055552 9.70555733,20.1749995 9.5,20.1749995 C9.29444267,20.1749995 9.12222293,20.1055552 8.9833344,19.9666667 L1.07499989,12.0666667 Z" id="Page-1"></path>
        </g>
    </g>
</svg>