<svg width="21px" height="22px" viewBox="0 0 21 22" version="1.1" xmlns="http://www.w3.org/2000/svg" xmlns:xlink="http://www.w3.org/1999/xlink">
    <!-- Generator: Sketch 43.2 (39069) - http://www.bohemiancoding.com/sketch -->
    <desc>Created with Sketch.</desc>
    <defs></defs>
    <g id="Symbols" stroke="none" stroke-width="1" fill="none" fill-rule="evenodd">
        <g id="Header-/-Desktop-LogedIn" transform="translate(-127.000000, -29.000000)" fill="#444444">
            <g id="Left" transform="translate(33.000000, 0.000000)">
                <g id="Buttons-/-Search" transform="translate(94.000000, 29.000000)">
                    <path d="M14.538462,9.1448078 C14.538462,7.54272636 13.985284,6.17231616 12.8789082,5.03353938 C11.7725324,3.8947626 10.4411138,3.32538439 8.88461549,3.32538439 C7.32811721,3.32538439 5.99670138,3.8947626 4.89032561,5.03353938 C3.78394983,6.17231616 3.23076901,7.54272636 3.23076901,9.1448078 C3.23076901,10.7468893 3.78394983,12.1172965 4.89032561,13.2560733 C5.99670138,14.3948501 7.32811721,14.9642312 8.88461549,14.9642312 C10.4411138,14.9642312 11.7725324,14.3948501 12.8789082,13.2560733 C13.985284,12.1172965 14.538462,10.7468893 14.538462,9.1448078 Z M21,19.9523075 C21,20.4026224 20.840146,20.7923119 20.5204351,21.1213881 C20.2007214,21.4504644 19.82212,21.615 19.3846169,21.615 C18.9302879,21.615 18.5516866,21.4504644 18.2487987,21.1213881 L13.9200725,16.6788807 C12.4140546,17.7527098 10.7355859,18.2896156 8.88461549,18.2896156 C7.68148544,18.2896156 6.53095595,18.0493054 5.4329931,17.5686822 C4.33503025,17.0880589 3.38852546,16.4385763 2.59344963,15.6202141 C1.79837351,14.8018548 1.16737032,13.8276309 0.700420835,12.6975134 C0.233471237,11.5673959 0,10.3831724 0,9.1448078 C0,7.90644032 0.233471237,6.72221675 0.700420835,5.59210219 C1.16737032,4.46198471 1.79837351,3.48776085 2.59344963,2.66939862 C3.38852546,1.85103929 4.33503025,1.20155672 5.4329931,0.72093054 C6.53095595,0.24030727 7.68148544,0 8.88461549,0 C10.0877484,0 11.238275,0.24030727 12.3362379,0.72093054 C13.4342007,1.20155672 14.3807055,1.85103929 15.1757833,2.66939862 C15.9708583,3.48776085 16.6018615,4.46198471 17.0688099,5.59210219 C17.5357611,6.72221675 17.769231,7.90644032 17.769231,9.1448078 C17.769231,11.0499852 17.2476015,12.7776091 16.2043283,14.3277318 L20.5330545,18.783227 C20.8443524,19.1036432 21,19.4933328 21,19.9523075 Z" id="search-icon"></path>
                </g>
            </g>
        </g>
    </g>
</svg>